# xmcd
#
# Track frame offsets: 
#        150
#        28552
#        40057
#        55440
#        68247
#        80710
#        90500
#        109025
#        127122
#        131247
#
# Disc length: 2292 seconds
#
# Revision: 0
# Processed by: cddbd v1.5.2PL0 Copyright (c) Steve Scherf et al.
# Submitted via: ExactAudioCopyFreeDBPlugin 1.0
#
DISCID=8b08f20a
DTITLE=Deacon John - Live at the 1994 New Orleans Jazz and Heritage Fest
DTITLE=ival
DYEAR=1999
DGENRE=Blues
TTITLE0=Happy Home
TTITLE1=No Love in My Heart
TTITLE2=You Upset Me Baby
TTITLE3=That's Alright
TTITLE4=Mother-in-Law Blues
TTITLE5=Mama Talk to Your Daughter
TTITLE6=Standing at the Crossroads
TTITLE7=Sweet Little Angel
TTITLE8=Amazing Grace
TTITLE9=Shake Your Money Maker
EXTD=CD Baby id:deaconjBarcode: 709587095729
EXTT0=
EXTT1=
EXTT2=
EXTT3=
EXTT4=
EXTT5=
EXTT6=
EXTT7=
EXTT8=
EXTT9=
PLAYORDER=
